<?xml version="1.0" encoding="UTF-8" standalone="no"?>
<svg
   width="32"
   height="32"
   viewBox="0 0 6.2997979 6.2997979"
   version="1.1"
   xml:space="preserve"
   xmlns="http://www.w3.org/2000/svg"
   xmlns:svg="http://www.w3.org/2000/svg"
   xmlns:rdf="http://www.w3.org/1999/02/22-rdf-syntax-ns#"
   xmlns:cc="http://creativecommons.org/ns#"
   xmlns:dc="http://purl.org/dc/elements/1.1/"
>
   <g>
	 <path
       style="color:#000000;fill:#000000;stroke-linecap:round;stroke-linejoin:round;-inkscape-stroke:none"
       d="M 5.1503906,0.0859375 A 0.3400625,0.3400625 0 0 0 4.9042969,0.18554687 L 2.4667969,2.625 A 0.3400625,0.3400625 0 0 0 2.3847656,2.7519531 L 1.9746094,3.9316406 a 0.3400625,0.3400625 0 0 0 0.4238281,0.4375 L 3.6171875,3.984375 A 0.3400625,0.3400625 0 0 0 3.7558594,3.9003906 L 6.1679687,1.4882812 a 0.3400625,0.3400625 0 0 0 0.00586,-0.4746093 L 5.3925781,0.19140625 A 0.3400625,0.3400625 0 0 0 5.1503906,0.0859375 Z M 1.0332031,0.69335937 A 0.3400625,0.3400625 0 0 0 0.69335937,1.0332031 V 5.265625 A 0.3400625,0.3400625 0 0 0 1.0332031,5.6054687 H 5.265625 A 0.3400625,0.3400625 0 0 0 5.6054687,5.265625 V 3.4042969 A 0.34002849,0.34002849 0 0 0 5.265625,3.0644531 0.34002849,0.34002849 0 0 0 4.9257812,3.4042969 V 4.9257812 H 1.3730469 V 1.3730469 h 1.5 A 0.34002849,0.34002849 0 0 0 3.2128906,1.0332031 0.34002849,0.34002849 0 0 0 2.8730469,0.69335937 Z M 5.1386719,0.9140625 5.453125,1.2421875 5.1015625,1.59375 4.78125,1.2734375 Z M 4.3007812,1.7539062 4.6210937,2.0742188 3.3339844,3.3613281 2.8398438,3.5175781 3.0019531,3.0507813 Z"
     />
   </g>
</svg>
