<?xml version="1.0" encoding="UTF-8" standalone="no"?>
<svg
   width="32"
   height="32"
   viewBox="0 0 32 32"
   fill="none"
   version="1.1"
   id="svg1"
   sodipodi:docname="gear.svg"
   inkscape:version="1.3.2 (091e20e, 2023-11-25, custom)"
   inkscape:export-filename="gear.png"
   inkscape:export-xdpi="96"
   inkscape:export-ydpi="96"
   xmlns:inkscape="http://www.inkscape.org/namespaces/inkscape"
   xmlns:sodipodi="http://sodipodi.sourceforge.net/DTD/sodipodi-0.dtd"
   xmlns="http://www.w3.org/2000/svg"
   xmlns:svg="http://www.w3.org/2000/svg">
  <defs
     id="defs1" />
  <sodipodi:namedview
     id="namedview1"
     pagecolor="#ffffff"
     bordercolor="#000000"
     borderopacity="0.25"
     inkscape:showpageshadow="2"
     inkscape:pageopacity="0.0"
     inkscape:pagecheckerboard="0"
     inkscape:deskcolor="#d1d1d1"
     inkscape:zoom="17.810252"
     inkscape:cx="15.159808"
     inkscape:cy="15.187882"
     inkscape:window-width="1920"
     inkscape:window-height="1017"
     inkscape:window-x="-8"
     inkscape:window-y="-8"
     inkscape:window-maximized="1"
     inkscape:current-layer="svg1" />
  <path
     d="M 13.82797,18.2186 C 14.3241,18.6984 15.0608,19 16,19 c 1.7551,0 3,-1.2659 3,-3 0,-1.7341 -1.2449,-3 -3,-3 -0.9392,0 -1.6759,0.30161 -2.17203,0.78136 C 13.33715,14.256 13,14.9837 13,16 c 0,1.0163 0.33715,1.744 0.82797,2.2186 z m -1.39032,1.4378 C 11.5066,18.756 11,17.4837 11,16 11,14.5163 11.5066,13.244 12.43765,12.34364 13.36343,11.44839 14.6267,11 16,11 c 2.8699,0 4.999996,2.17164 4.999996,5 0,2.8284 -2.130096,5 -4.999996,5 -1.3733,0 -2.63657,-0.4484 -3.56235,-1.3436 z m 12.104946,-0.8453 c 0.099,-0.2815 0.3462,-0.3233 0.4574,-0.3091 h 1.5 c 0.828,0 1.5,-0.672 1.5,-1.5 V 15 c 0,-0.828 -0.672,-1.5 -1.5,-1.5 h -1.5 c -0.1153,0.0016 -0.3696,-0.06267 -0.465,-0.33196 -0.1328,-0.40029 -0.2938,-0.79056 -0.4816,-1.16804 -0.1383,-0.29456 -0.0346,-0.49122 0.0345,-0.55273 l 1.1041,-1.10327 c 0.586,-0.586 0.586,-1.535 0.001,-2.121 l -1.416,-1.414 c -0.586,-0.586 -1.535,-0.586 -2.121,0 l -1.0841,1.08324 c -0.1906,0.19054 -0.4607,0.11681 -0.5719,0.05613 C 19.621796,7.75984 19.230396,7.59838 18.8293,7.46526 18.6183,7.39523 18.5,7.25 18.5,7 V 5.5 C 18.5,4.672 17.828,4 17,4 H 15 C 14.172,4 13.5,4.672 13.5,5.5 V 7 c 0,0.25 -0.09526,0.38307 -0.32929,0.46526 C 12.74355,7.607 12.32743,7.78088 11.92605,7.98534 11.83935,8.03387 11.62373,8.08876 11.45492,7.92007 L 10.343,6.809 C 9.757,6.223 8.808,6.223 8.222,6.809 L 6.807,8.223 C 6.221,8.809 6.221,9.758 6.806,10.344 l 1.09729,1.09646 c 0.14381,0.1437 0.1047,0.40223 0.06718,0.51353 C 7.77279,12.34488 7.60413,12.75003 7.46592,13.16572 7.36591,13.44678 7.11364,13.50568 7,13.5 H 5.5 C 4.672,13.5 4,14.172 4,15 v 2 c 0,0.828 0.672,1.5 1.5,1.5 H 7 C 7.1119,18.4878 7.36018,18.5329 7.45804,18.8109 7.59222,19.2187 7.75561,19.6162 7.94687,20 8.01066,20.1086 8.0945,20.3695 7.9195,20.5445 L 6.806,21.658 c -0.586,0.586 -0.586,1.535 0,2.121 l 1.414,1.414 c 0.595,0.563 1.527,0.563 2.122,0 l 1.07825,-1.0774 c 0.20319,-0.2031 0.42541,-0.1484 0.51112,-0.0957 0.41256,0.2097 0.84075,0.3873 1.28087,0.5312 0.2557,0.089 0.29838,0.3364 0.28776,0.4489 v 1.5 c 0,0.828 0.672,1.5 1.5,1.5 h 2 c 0.828,0 1.5,-0.672 1.5,-1.5 V 25 c 0,-0.25 0.0703,-0.36 0.2668,-0.4418 0.461296,-0.1493 0.910096,-0.336 1.341596,-0.5582 0.228,-0.1123 0.3877,0.0101 0.4391,0.0853 l 1.1095,1.1087 c 0.586,0.586 1.535,0.586 2.121,0 l 1.414,-1.414 c 0.586,-0.586 0.586,-1.535 0,-2.121 l -1.0857,-1.0857 c -0.1781,-0.1781 -0.1329,-0.4085 -0.088,-0.5015 0.2066,-0.4063 0.3819,-0.8277 0.5243,-1.2607 z m -2.5188,3.9221 0.6936,0.693 0.7067,-0.7067 -0.732,-0.7319 c -1.0125,-1.0126 -0.7224,-2.2724 -0.4751,-2.785 l 0.009,-0.0188 0.01,-0.0187 c 0.1605,-0.3155 0.2965,-0.6426 0.407,-0.9787 l 0.006,-0.0198 0.007,-0.0197 c 0.4543,-1.2906 1.591,-1.6484 2.3439,-1.6448 l 1,-10e-5 V 15.5 h -1 c -0.6134,-9e-4 -1.8695,-0.3066 -2.3503,-1.66437 l -0.007,-0.01885 -0.006,-0.01898 c -0.103,-0.31061 -0.228,-0.61358 -0.3738,-0.90674 l -0.0102,-0.02035 -0.01,-0.02057 c -0.4727,-1.00654 -0.2763,-2.13843 0.4517,-2.83816 l 0.7294,-0.72886 -0.7076,-0.70658 -0.731,0.73045 c -0.5663,0.56585 -1.2557,0.71786 -1.7712,0.70708 C 19.770096,10.00477 19.381996,9.88031 19.0903,9.7299 18.8023,9.5873 18.5043,9.46482 18.1989,9.36347 17.8063,9.2332 17.3326,8.97442 16.972,8.48258 16.609,7.98738 16.4995,7.44538 16.4995,7 V 6 h -1 v 1 c 0,0.36701 -0.0691,0.92209 -0.4458,1.45292 -0.3765,0.53064 -0.877,0.77863 -1.22081,0.89936 l -0.01635,0.0057 -0.01645,0.0055 c -0.33165,0.11005 -0.65487,0.2451 -0.96672,0.40396 -0.52987,0.26637 -1.77292,0.58632 -2.79263,-0.43262 L 9.28201,8.57667 8.57419,9.28399 9.31647,10.02571 c 0.57201,0.57158 0.67365,1.25501 0.68659,1.61101 0.01354,0.37245 -0.05377,0.70669 -0.13792,0.95627 l -0.04577,0.13573 -0.06464,0.12783 c -0.15329,0.30312 -0.28417,0.6175 -0.39147,0.94019 l -0.0066,0.0198 -0.007,0.01967 C 8.88385,15.1453 7.70171,15.4992 6.99948,15.4999 l -1,10e-5 v 1 h 1 c 0.73092,-0.0017 1.88596,0.3442 2.34454,1.6467 l 0.0069,0.0195 0.0065,0.0196 c 0.10031,0.3049 0.22162,0.6022 0.36296,0.8896 0.14088,0.2646 0.26808,0.6192 0.29703,1.0321 0.03519,0.502 -0.07677,1.2439 -0.68413,1.8512 l -0.75978,0.7598 0.7072,0.7072 0.72544,-0.7249 c 0.93749,-0.9368 2.12529,-0.8282 2.83899,-0.4598 0.31821,0.1613 0.64862,0.2981 0.9885,0.4093 l 0.01782,0.0058 0.01771,0.0062 c 1.35391,0.4711 1.62821,1.6898 1.62961,2.3377 l 8e-4,1 h 1 v -1 c 0,-0.2737 0.0302,-0.7982 0.353,-1.3266 0.3463,-0.567 0.8388,-0.8341 1.1452,-0.9616 l 0.0752,-0.0313 0.0775,-0.0251 c 0.3582,-0.1159 0.7067,-0.2609 1.041996,-0.4336 l 0.0158,-0.0081 0.0159,-0.0078 c 0.584,-0.2877 1.2349,-0.3279 1.8251,-0.1231 0.4075,0.1414 0.7344,0.3807 0.9741,0.6504 z m 1.0464,-14.50999 c 2e-4,-1.7e-4 -2e-4,1.8e-4 0,0 z m 2.9298,8.77879 c 0,-7e-4 0,-0.0013 0,-0.002 z m -2.9288,6.7778 c -2e-4,-2e-4 2e-4,2e-4 0,0 z"
     fill-rule="evenodd"
     clip-rule="evenodd"
     fill="#66788C"
     id="path1"
     style="fill:#000000;fill-opacity:1" />
  <path
     id="path2"
     style="display:inline;fill:#000000;fill-opacity:1;stroke:none;stroke-width:2.26772;stroke-linecap:round;stroke-linejoin:round"
     d="M 17.349609 5.0820312 L 14.53125 5.28125 L 14.253906 8.296875 L 12.109375 8.7734375 L 9.4492188 7.703125 L 7.4648438 9.2910156 L 9.2109375 11.671875 L 8.1386719 14.451172 L 5.5585938 14.888672 L 5.28125 17.191406 L 7.9804688 17.865234 L 9.0117188 20.605469 L 7.78125 22.669922 L 9.3300781 24.177734 L 11.433594 22.988281 L 14.53125 24.496094 L 14.849609 26.837891 L 17.150391 26.640625 L 17.667969 24.337891 L 20.40625 23.146484 L 22.074219 24.296875 L 24.416016 22.789062 L 23.066406 20.724609 L 24.337891 17.349609 L 26.759766 17.349609 L 26.283203 14.849609 L 23.822266 14.253906 L 23.066406 10.878906 L 24.21875 9.3300781 L 22.589844 7.5839844 L 20.763672 9.0117188 L 17.667969 7.9414062 L 17.349609 5.0820312 z M 16 12.705078 A 3.2952855 3.2952855 0 0 1 19.294922 16 A 3.2952855 3.2952855 0 0 1 16 19.294922 A 3.2952855 3.2952855 0 0 1 12.705078 16 A 3.2952855 3.2952855 0 0 1 16 12.705078 z " />
</svg>
