<?xml version="1.0" encoding="UTF-8" standalone="no"?>
<svg
   width="32"
   height="32"
   viewBox="0 0 6.3366337 6.3366337"
   version="1.1"
   xmlns="http://www.w3.org/2000/svg"
   xmlns:svg="http://www.w3.org/2000/svg"
   xmlns:rdf="http://www.w3.org/1999/02/22-rdf-syntax-ns#"
   xmlns:cc="http://creativecommons.org/ns#"
   xmlns:dc="http://purl.org/dc/elements/1.1/">
    <g transform="matrix(0.90277223,0,0,0.90277223,0.30869835,0.30869835)">
      <path
         style="stroke:none;stroke-linecap:round;stroke-linejoin:round;"
         d="m 0.80078125,0.37890625 a 0.42204219,0.42204219 0 0 0 -0.421875,0.421875 V 5.5488281 a 0.42204219,0.42204219 0 0 0 0.421875,0.421875 H 5.5488281 a 0.42204219,0.42204219 0 0 0 0.421875,-0.421875 V 3.4609375 a 0.42199999,0.42199999 0 0 0 -0.421875,-0.421875 0.42199999,0.42199999 0 0 0 -0.421875,0.421875 V 5.1269531 H 1.2226562 V 1.2226562 h 1.6425782 a 0.42199999,0.42199999 0 0 0 0.421875,-0.42187495 0.42199999,0.42199999 0 0 0 -0.421875,-0.421875 z m 3.15234375,0.1875 A 0.42199999,0.42199999 0 0 0 3.5292969,0.98828125 0.42199999,0.42199999 0 0 0 3.953125,1.4101562 h 0.3808594 l -2.34375,2.3183594 a 0.42199999,0.42199999 0 0 0 -0.00391,0.5957031 0.42199999,0.42199999 0 0 0 0.5976563,0.00391 L 4.9394531,2 v 0.3847656 a 0.42199999,0.42199999 0 0 0 0.421875,0.421875 0.42199999,0.42199999 0 0 0 0.421875,-0.421875 V 0.98828125 a 0.42199999,0.42199999 0 0 0 -0.421875,-0.421875 z" />
    </g>
</svg>
